<svg width="32" height="26" viewBox="0 0 32 26" fill="none" xmlns="http://www.w3.org/2000/svg">
<path d="M13.1135 0L-1.90735e-05 20.1006L1.67503 21.1934L6.04621 14.4932L22.7967 25.4212L31.5391 12.0207L13.1135 0ZM13.6958 2.76785L16.2084 4.40704L14.5692 6.91962L17.0817 8.55881L18.7209 6.04623L21.2335 7.68543L19.5943 10.198L22.1069 11.8372L23.7461 9.32462L26.2587 10.9638L24.6195 13.4764L27.1321 15.1156L25.4929 17.6282L22.9803 15.989L21.3411 18.5015L23.8537 20.1407L22.2145 22.6533L19.7019 21.0141L21.3411 18.5015L18.8285 16.8624L17.1893 19.3749L14.6767 17.7357L16.3159 15.2232L13.8034 13.584L12.1642 16.0965L9.65159 14.4574L11.2908 11.9448L8.7782 10.3056L10.4174 7.793L12.93 9.4322L14.5692 6.91962L12.0566 5.28042L13.6958 2.76785ZM12.93 9.4322L11.2908 11.9448L13.8034 13.584L15.4426 11.0714L12.93 9.4322ZM15.4426 11.0714L17.9551 12.7106L19.5943 10.198L17.0817 8.55881L15.4426 11.0714ZM17.9551 12.7106L16.3159 15.2232L18.8285 16.8624L20.4677 14.3498L17.9551 12.7106ZM20.4677 14.3498L22.9803 15.989L24.6195 13.4764L22.1069 11.8372L20.4677 14.3498Z" fill="#0DEDDF"/>
</svg>
